<?xml version="1.0" encoding="utf-8"?>
<!-- Generator: Adobe Illustrator 24.0.1, SVG Export Plug-In . SVG Version: 6.00 Build 0)  -->
<svg version="1.1" id="Layer_1" xmlns="http://www.w3.org/2000/svg" xmlns:xlink="http://www.w3.org/1999/xlink" x="0px" y="0px"
	 viewBox="0 0 3217.9 2527.1" style="enable-background:new 0 0 3217.9 2527.1;" xml:space="preserve">
<style type="text/css">
	.st0{fill:#0F81C7;}
</style>
<g>
	<g id="SvgjsG1188" transform="matrix(1.6256574392318726,0,0,1.6256574392318726,93.33624118024375,34.47896087235407)">
		<g>
			<path class="st0" d="M1321,385.4c-71.1-30.7-139.4-39.4-208.6-9.3c-63.5,27.5-103.4,78.6-135.5,138.1c50,23,100.8,33.3,154,29.6
				c42.5-3,80.6-17.9,108.2-51.1C1267.3,458.8,1292.8,422.5,1321,385.4z"/>
			<path class="st0" d="M646.1,245.8c0.7,71.1,19.4,131.9,66.5,181.6c50.7,53.5,116.2,72.3,187.5,76.5
				c-52.3-47.3-103.6-95.2-147.8-150.1c26.8,23.3,52,48.4,78.3,72.2c26.3,23.8,53.7,46.3,80.7,69.4c1.7-7.4,0.8-12.4,0.4-17.5
				c-2.5-38-12.7-74-28.9-108.3c-21.1-44.5-51.3-80.5-100.2-93.9C738.6,263.5,693.2,255.9,646.1,245.8z"/>
			<path class="st0" d="M955.4,506.3c-1.6,6.2-3.7,12.2-5.6,18c-11.9,35-25.5,67.1-22.6,104.9c-7.8,0.6-15.4,1.9-22.8,3.8
				c-0.3-4.7-0.5-9.5-0.6-14.3c0.9-33.4,21.2-96.5,34.6-119.4l0.7-1.2c1.3-2.3,2.6-4.6,4.6-6.4c4.1-3.8,7.7-4.1,10-1.1
				C956.5,494.3,956.5,502.1,955.4,506.3z"/>
			<path class="st0" d="M939.1,648c-72.1,0-130.5,58.4-130.5,130.5s58.4,130.5,130.5,130.5c72,0,130.5-58.4,130.5-130.5
				S1011.1,648,939.1,648z M925.4,697.4L925.4,697.4L925.4,697.4L925.4,697.4z M993.7,823.4c-2.3,17.3-12.9,28.9-31.5,34.7
				c-2.4,0.8-4.9,1.3-7.6,1.9l-1,0.2c-0.2,0.1-0.3,0.1-0.4,0.1h-2v21.1h-21.5v-20.5l-1.5-0.4c-32.3-7.9-46.8-24.4-44.2-50.3l0.3-2.1
				h33.4l1.1,7.3c1.1,10.1,7.5,16.3,17.5,17.1c1.1,0.1,2.3,0.1,3.7,0.1l2.5-0.1c10.3-0.3,14.1-5.8,15.5-10.4
				c2.6-8.2,0.2-16.5-6-20.5c-3.6-2.3-7.4-4.1-11.7-6.1c-2-0.8-3.9-1.8-5.9-2.7l-0.2-0.1c-2.8-1.4-5.7-2.7-8.5-4
				c-6.3-2.8-13.4-6-19.7-10.5c-12.1-8.6-18.6-22.9-17.4-38.2c1.3-15.6,10.2-29,23.7-35.8c4.2-2.1,8.6-3.4,13.4-4.8l6-1.9v-21.7H953
				v22.6l1.5,0.3c15.8,3.6,26.3,10.6,33,22c4.5,7.8,6.8,18.4,5.8,27l-0.2,2h-33.5l-0.9-5c-0.5-3.3-0.9-5.7-1.6-7.7
				c-2.3-7.1-8-10.9-16.3-10.9c-10.9,0.2-14,5-15.5,9.6c-2.8,8.5-0.8,16.7,5,20.5c4.1,2.7,8.5,4.7,13.1,6.9l0.8,0.4
				c1.8,0.9,3.6,1.7,5.4,2.5c2.8,1.5,5.7,2.8,8.5,4l1.4,0.6c5.1,2.4,10.3,4.8,15.2,7.8C989.8,787.5,996.4,803.1,993.7,823.4z"/>
		</g>
	</g>
	<g id="SvgjsG1189" transform="matrix(2.3523921966552734,0,0,2.3523921966552734,-2.683197477254558,130.7413925092301)">
		<path class="st0" d="M146.6,750.5v30.3H47.4V647.5h32.7v103L146.6,750.5L146.6,750.5z M207.5,751.6c15.9,0,25.1-9.4,25.1-25.3
			c0-15.9-9.1-25.3-25.1-25.3s-25.1,9.4-25.1,25.3C182.4,742.3,191.6,751.6,207.5,751.6L207.5,751.6z M207.5,781.9
			c-33.5,0-57.7-22.2-57.7-55.6c0-34.4,25.1-55.6,57.7-55.6c33.8,0,57.7,22.2,57.7,55.6C265.2,760.6,240,781.9,207.5,781.9
			L207.5,781.9z M386.9,726.4v54.5h-32.7v-54.5c0-15-7-25.3-22.9-25.3c-15.7,0-22.9,10.5-22.9,25.3v54.5h-32.7v-54.5
			c0-33.5,23.1-55.6,55.6-55.6C365.2,670.8,386.9,693.9,386.9,726.4z M468.6,715.5c0-11.5-11.1-14.4-20.7-14.4
			c-9.6,0-20.7,2.8-20.7,14.4c0,11.5,11.1,14.4,20.7,14.4C457.5,729.9,468.6,727,468.6,715.5z M459.9,801.5c0-7.4-5.2-10.2-12-10.2
			c-6.8,0-12,2.8-12,10.2s5.2,10.2,12,10.2C454.6,811.8,459.9,808.9,459.9,801.5z M489.3,801.5c0,23.1-21.6,32.7-41.4,32.7
			c-20,0-41.4-10.5-41.4-32.7c0-16.3,12-27.4,27.2-30.9v-11.8c-6.3-1.1-11.8-3-16.6-5.9c-14.2-7.4-22.7-21.6-22.7-37.5
			c0-30.1,26.8-44.7,53.4-44.7c11.8,0,21.8,2.2,30.1,6.8c8.5-4.1,16.8-5.7,26.1-5.7h8.5v26.4h-4.8H503c-1.5,0.2-3.3,0.4-5,0.9
			c2.2,5,3.3,10.5,3.3,16.3c0,23.3-16.8,38.6-38.1,43.1v12.2C477.7,774.9,489.3,785.6,489.3,801.5L489.3,801.5z M595.9,726.4
			c-0.9-15.9-8.1-25.3-24.6-25.3c-4.6,0-8.5,0.7-11.8,2c-10,4.6-13.7,13.1-13.7,23.5c0,3.5,0.4,6.8,1.5,9.6
			c3.3,11.3,13.1,15.5,24,15.5C587.9,751.6,595.9,742.7,595.9,726.4z M637.3,780.8h-32.7c-2.2-5.4-4.1-10.9-5.4-16.6
			c-7.4,12.2-18.7,17.6-32.7,17.6c-31.2,0-53.4-26.1-53.4-56c0-34.4,25.7-55.1,58.2-55.1c34.6,0,56.4,22.2,57.3,55.6
			c0.2,2.8,0.2,6.1,0.2,10C628.8,751.6,631.2,766.9,637.3,780.8L637.3,780.8z M722.8,707.4v73.4h-32.7V647.5h32.7l41.6,73.6
			l41.6-73.6h32.7v133.3H806v-73.4l-25.3,43.4h-32.7L722.8,707.4z M908.8,751.6c15.9,0,25.1-9.4,25.1-25.3
			c0-15.9-9.1-25.3-25.1-25.3s-25.1,9.4-25.1,25.3C883.8,742.3,892.9,751.6,908.8,751.6z M908.8,781.9c-33.5,0-57.7-22.2-57.7-55.6
			c0-34.4,25.1-55.6,57.7-55.6c33.8,0,57.7,22.2,57.7,55.6C966.5,760.6,941.3,781.9,908.8,781.9z M1088.3,726.4v54.5h-32.7v-54.5
			c0-15-7-25.3-22.9-25.3c-15.7,0-22.9,10.5-22.9,25.3v54.5h-32.7v-54.5c0-33.5,23.1-55.6,55.6-55.6
			C1066.5,670.8,1088.3,693.9,1088.3,726.4z M1132.8,713.3c3.3,1.1,7,2,10.9,2.4c3.9,0.7,7.6,0.9,11.1,0.9c4.4,0,15.5-0.9,15.5-7.2
			c0-6.8-9.6-7-14.4-7C1146.4,702.4,1138.1,704.6,1132.8,713.3L1132.8,713.3z M1194.5,746.8v30.5c-12.2,2.8-24.4,4.8-37,4.8
			c-34.6,0-60.3-20.3-60.3-55.3c0-34.6,24.8-56,57.7-56c22.4,0,48.4,10.7,48.4,36.2c0,25.3-27.4,34.6-48.6,34.6
			c-8.1,0-16.1-2.2-23.5-5.2c4.4,12.2,17.4,14.2,28.8,14.2c5.9,0,11.8-0.2,17.6-1.1C1183,749,1189.3,748.4,1194.5,746.8z
			 M1290.1,726.4v-54.5h32.7v103.3c0,34.6-24.8,55.8-57.7,55.8c-11.5,0-23.1-1.1-34.2-4.8v-33.5c9.4,5,22,6.8,32.5,6.8
			c11.8,0,21.1-3.5,25.5-14.8c0.9-3,1.3-6.3,1.3-9.6v-5c-7.4,8.3-17,12-27.9,12c-30.9,0-50.5-26.6-50.5-55.6v-54.5h32.7v54.5
			c0,14.8,5.9,25.3,21.8,25.3C1281.6,751.6,1290.1,741.4,1290.1,726.4z"/>
	</g>
</g>
</svg>
