
        <svg xmlns="http://www.w3.org/2000/svg" xmlns:xlink="http://www.w3.org/1999/xlink" version="1.1" width="3217.8541016179392" height="2527.1075787680957" viewBox="0 0 3217.8541016179392 2527.1075787680957">
			
			<g transform="scale(10.892705080896963) translate(10, 10)">
				<defs id="SvgjsDefs1187"/><g id="SvgjsG1188" featureKey="PWj8fW-0" transform="matrix(1.6256574392318726,0,0,1.6256574392318726,93.33624118024375,34.47896087235407)" fill="#fff"><g xmlns="http://www.w3.org/2000/svg"><path d="M62.976,14.371c-6.529-2.821-12.795-3.614-19.154-0.857c-5.83,2.527-9.497,7.219-12.435,12.682   c4.592,2.109,9.25,3.058,14.135,2.714c3.901-0.275,7.398-1.647,9.934-4.689C58.052,21.107,60.392,17.78,62.976,14.371z"/><path d="M1.024,1.551C1.088,8.077,2.801,13.664,7.13,18.226c4.655,4.907,10.672,6.635,17.217,7.023   c-4.804-4.342-9.509-8.742-13.573-13.778c2.463,2.14,4.774,4.44,7.19,6.624c2.414,2.183,4.933,4.25,7.406,6.367   c0.155-0.679,0.069-1.141,0.039-1.605c-0.225-3.492-1.162-6.794-2.655-9.945c-1.933-4.081-4.712-7.388-9.197-8.62   C9.508,3.18,5.346,2.478,1.024,1.551z"/><path d="M29.418,25.469c-0.148,0.567-0.336,1.12-0.516,1.652c-1.09,3.216-2.342,6.161-2.075,9.627   c-0.717,0.058-1.417,0.175-2.097,0.346c-0.026-0.43-0.044-0.868-0.055-1.311c0.08-3.065,1.946-8.861,3.18-10.96l0.062-0.108   c0.12-0.208,0.243-0.421,0.418-0.583c0.372-0.346,0.706-0.374,0.915-0.104C29.515,24.371,29.516,25.086,29.418,25.469z"/><path d="M27.915,38.48c-6.621,0-11.985,5.363-11.985,11.985s5.363,11.985,11.985,11.985   c6.613,0,11.985-5.363,11.985-11.985S34.529,38.48,27.915,38.48z M26.666,43.012L26.666,43.012L26.666,43.012L26.666,43.012z    M32.931,54.579c-0.214,1.584-1.185,2.655-2.889,3.187c-0.217,0.072-0.449,0.12-0.694,0.17l-0.093,0.02   c-0.016,0.005-0.028,0.007-0.033,0.007h-0.182V59.9H27.07v-1.881l-0.139-0.034c-2.969-0.728-4.296-2.24-4.059-4.619l0.023-0.195   h3.065l0.1,0.673c0.102,0.923,0.687,1.495,1.606,1.569c0.104,0.009,0.215,0.01,0.336,0.009l0.229-0.008   c0.941-0.023,1.296-0.532,1.427-0.955c0.24-0.756,0.02-1.512-0.547-1.88c-0.329-0.211-0.683-0.376-1.077-0.56   c-0.181-0.078-0.362-0.165-0.543-0.251l-0.021-0.01c-0.258-0.125-0.524-0.25-0.783-0.367c-0.577-0.258-1.231-0.55-1.806-0.967   c-1.11-0.793-1.707-2.103-1.596-3.503c0.119-1.436,0.932-2.665,2.175-3.286c0.386-0.189,0.794-0.31,1.227-0.439l0.547-0.17V41.03   h1.961v2.074l0.142,0.032c1.45,0.329,2.413,0.969,3.028,2.016c0.416,0.713,0.625,1.685,0.53,2.481l-0.017,0.183h-3.076   l-0.086-0.455c-0.042-0.301-0.087-0.52-0.148-0.711c-0.215-0.656-0.73-1.003-1.493-1.003c-1.005,0.019-1.281,0.455-1.42,0.878   c-0.26,0.781-0.074,1.537,0.462,1.882c0.377,0.249,0.779,0.434,1.203,0.631l0.073,0.034c0.165,0.083,0.33,0.157,0.495,0.231   c0.261,0.134,0.524,0.253,0.776,0.367l0.127,0.059c0.466,0.217,0.947,0.441,1.395,0.717C32.576,51.29,33.178,52.719,32.931,54.579z   "/></g></g><g id="SvgjsG1189" featureKey="4RKx6C-0" transform="matrix(2.3523921966552734,0,0,2.3523921966552734,-2.683197477254558,130.7413925092301)" fill="#fff"><path d="M10.24 17.22 l0 2.78 l-9.1 0 l0 -12.24 l3 0 l0 9.46 l6.1 0 z M15.834 17.32 c1.46 0 2.3 -0.86 2.3 -2.32 s-0.84 -2.32 -2.3 -2.32 s-2.3 0.86 -2.3 2.32 s0.84 2.32 2.3 2.32 z M15.834 20.1 c-3.08 0 -5.3 -2.04 -5.3 -5.1 c0 -3.16 2.3 -5.1 5.3 -5.1 c3.1 0 5.3 2.04 5.3 5.1 c0 3.14 -2.32 5.1 -5.3 5.1 z M32.308 15 l0 5 l-3 0 l0 -5 c0 -1.38 -0.64 -2.32 -2.1 -2.32 c-1.44 0 -2.1 0.96 -2.1 2.32 l0 5 l-3 0 l0 -5 c0 -3.08 2.12 -5.1 5.1 -5.1 c3.1 0 5.1 2.12 5.1 5.1 z M39.802 14 c0 -1.06 -1.02 -1.32 -1.9 -1.32 s-1.9 0.26 -1.9 1.32 s1.02 1.32 1.9 1.32 s1.9 -0.26 1.9 -1.32 z M39.001999999999995 21.9 c0 -0.68 -0.48 -0.94 -1.1 -0.94 s-1.1 0.26 -1.1 0.94 s0.48 0.94 1.1 0.94 s1.1 -0.26 1.1 -0.94 z M41.702 21.9 c0 2.12 -1.98 3 -3.8 3 c-1.84 0 -3.8 -0.96 -3.8 -3 c0 -1.5 1.1 -2.52 2.5 -2.84 l0 -1.08 c-0.58 -0.1 -1.08 -0.28 -1.52 -0.54 c-1.3 -0.68 -2.08 -1.98 -2.08 -3.44 c0 -2.76 2.46 -4.1 4.9 -4.1 c1.08 0 2 0.2 2.76 0.62 c0.78 -0.38 1.54 -0.52 2.4 -0.52 l0.78 0 l0 2.42 l-0.44 0 l-0.44 0 c-0.14 0.02 -0.3 0.04 -0.46 0.08 c0.2 0.46 0.3 0.96 0.3 1.5 c0 2.14 -1.54 3.54 -3.5 3.96 l0 1.12 c1.34 0.38 2.4 1.36 2.4 2.82 z M51.495999999999995 15 c-0.08 -1.46 -0.74 -2.32 -2.26 -2.32 c-0.42 0 -0.78 0.06 -1.08 0.18 c-0.92 0.42 -1.26 1.2 -1.26 2.16 c0 0.32 0.04 0.62 0.14 0.88 c0.3 1.04 1.2 1.42 2.2 1.42 c1.52 0 2.26 -0.82 2.26 -2.32 z M55.296 20 l-3 0 c-0.2 -0.5 -0.38 -1 -0.5 -1.52 c-0.68 1.12 -1.72 1.62 -3 1.62 c-2.86 0 -4.9 -2.4 -4.9 -5.14 c0 -3.16 2.36 -5.06 5.34 -5.06 c3.18 0 5.18 2.04 5.26 5.1 c0.02 0.26 0.02 0.56 0.02 0.92 c0 1.4 0.22 2.8 0.78 4.08 z M63.144 13.26 l0 6.74 l-3 0 l0 -12.24 l3 0 l3.82 6.76 l3.82 -6.76 l3 0 l0 12.24 l-3 0 l0 -6.74 l-2.32 3.98 l-3 0 z M80.21799999999999 17.32 c1.46 0 2.3 -0.86 2.3 -2.32 s-0.84 -2.32 -2.3 -2.32 s-2.3 0.86 -2.3 2.32 s0.84 2.32 2.3 2.32 z M80.21799999999999 20.1 c-3.08 0 -5.3 -2.04 -5.3 -5.1 c0 -3.16 2.3 -5.1 5.3 -5.1 c3.1 0 5.3 2.04 5.3 5.1 c0 3.14 -2.32 5.1 -5.3 5.1 z M96.692 15 l0 5 l-3 0 l0 -5 c0 -1.38 -0.64 -2.32 -2.1 -2.32 c-1.44 0 -2.1 0.96 -2.1 2.32 l0 5 l-3 0 l0 -5 c0 -3.08 2.12 -5.1 5.1 -5.1 c3.1 0 5.1 2.12 5.1 5.1 z M100.78599999999999 13.8 c0.3 0.1 0.64 0.18 1 0.22 c0.36 0.06 0.7 0.08 1.02 0.08 c0.4 0 1.42 -0.08 1.42 -0.66 c0 -0.62 -0.88 -0.64 -1.32 -0.64 c-0.88 0 -1.64 0.2 -2.12 1 z M106.44599999999998 16.88 l0 2.8 c-1.12 0.26 -2.24 0.44 -3.4 0.44 c-3.18 0 -5.54 -1.86 -5.54 -5.08 c0 -3.18 2.28 -5.14 5.3 -5.14 c2.06 0 4.44 0.98 4.44 3.32 c0 2.32 -2.52 3.18 -4.46 3.18 c-0.74 0 -1.48 -0.2 -2.16 -0.48 c0.4 1.12 1.6 1.3 2.64 1.3 c0.54 0 1.08 -0.02 1.62 -0.1 c0.5 -0.04 1.08 -0.1 1.56 -0.24 z M115.22 15 l0 -5 l3 0 l0 9.48 c0 3.18 -2.28 5.12 -5.3 5.12 c-1.06 0 -2.12 -0.1 -3.14 -0.44 l0 -3.08 c0.86 0.46 2.02 0.62 2.98 0.62 c1.08 0 1.94 -0.32 2.34 -1.36 c0.08 -0.28 0.12 -0.58 0.12 -0.88 l0 -0.46 c-0.68 0.76 -1.56 1.1 -2.56 1.1 c-2.84 0 -4.64 -2.44 -4.64 -5.1 l0 -5 l3 0 l0 5 c0 1.36 0.54 2.32 2 2.32 c1.42 0 2.2 -0.94 2.2 -2.32 z"/></g><g id="SvgjsG1190" featureKey="icRlgA-0" transform="matrix(0.6973576545715332,0,0,0.6973576545715332,40.44156905475347,197.9275401797875)" fill="#fff"><path d="M3 8 l0 4.22 l2.84 0 l0 2 l-2.84 0 l0 5.78 l-2.2 0 l0 -14 l5.82 0 l0 2 l-3.62 0 z M16.733 9.22 l0 7.56 c0 1 0.44 1.38 1.14 1.38 s1.14 -0.38 1.14 -1.38 l0 -7.56 c0 -1 -0.44 -1.38 -1.14 -1.38 s-1.14 0.38 -1.14 1.38 z M14.533 16.64 l0 -7.28 c0 -2.24 1.18 -3.52 3.34 -3.52 s3.34 1.28 3.34 3.52 l0 7.28 c0 2.24 -1.18 3.52 -3.34 3.52 s-3.34 -1.28 -3.34 -3.52 z M36.506 20 l-2.24 0 c-0.12 -0.36 -0.2 -0.58 -0.2 -1.72 l0 -2.2 c0 -1.3 -0.44 -1.78 -1.44 -1.78 l-0.76 0 l0 5.7 l-2.2 0 l0 -14 l3.32 0 c2.28 0 3.26 1.06 3.26 3.22 l0 1.1 c0 1.44 -0.46 2.36 -1.44 2.82 l0 0.04 c1.1 0.46 1.46 1.5 1.46 2.96 l0 2.16 c0 0.68 0.02 1.18 0.24 1.7 z M32.926 8 l-1.06 0 l0 4.3 l0.86 0 c0.82 0 1.32 -0.36 1.32 -1.48 l0 -1.38 c0 -1 -0.34 -1.44 -1.12 -1.44 z M60.55200000000001 20 l-0.78 -7.46 l-0.04 0 l-0.78 7.46 l-3.02 0 l-1.56 -14 l2.14 0 l1.16 11.04 l0.04 0 l1.04 -11.04 l2.12 0 l1.08 11.12 l0.04 0 l1.12 -11.12 l1.92 0 l-1.56 14 l-2.92 0 z M75.36500000000001 14 l0 6 l-2.2 0 l0 -14 l2.2 0 l0 6 l2.5 0 l0 -6 l2.24 0 l0 14 l-2.24 0 l0 -6 l-2.5 0 z M90.93800000000002 8 l0 3.9 l3.02 0 l0 2 l-3.02 0 l0 4.1 l3.8 0 l0 2 l-6 0 l0 -14 l6 0 l0 2 l-3.8 0 z M107.83100000000002 20 l-2.7 -10.14 l-0.04 0 l0 10.14 l-1.98 0 l0 -14 l2.76 0 l2.22 8.38 l0.04 0 l0 -8.38 l1.96 0 l0 14 l-2.26 0 z M130.89700000000005 20 l0 -4.64 l-2.78 -9.36 l2.3 0 l1.66 6.38 l0.04 0 l1.66 -6.38 l2.1 0 l-2.78 9.36 l0 4.64 l-2.2 0 z M145.51000000000002 9.22 l0 7.56 c0 1 0.44 1.38 1.14 1.38 s1.14 -0.38 1.14 -1.38 l0 -7.56 c0 -1 -0.44 -1.38 -1.14 -1.38 s-1.14 0.38 -1.14 1.38 z M143.31000000000003 16.64 l0 -7.28 c0 -2.24 1.18 -3.52 3.34 -3.52 s3.34 1.28 3.34 3.52 l0 7.28 c0 2.24 -1.18 3.52 -3.34 3.52 s-3.34 -1.28 -3.34 -3.52 z M158.34300000000002 6 l2.2 0 l0 10.8 c0 1 0.44 1.36 1.14 1.36 s1.14 -0.36 1.14 -1.36 l0 -10.8 l2.08 0 l0 10.66 c0 2.24 -1.12 3.52 -3.28 3.52 s-3.28 -1.28 -3.28 -3.52 l0 -10.66 z M188.26900000000003 20 l-2.7 -10.14 l-0.04 0 l0 10.14 l-1.98 0 l0 -14 l2.76 0 l2.22 8.38 l0.04 0 l0 -8.38 l1.96 0 l0 14 l-2.26 0 z M201.34200000000004 8 l0 3.9 l3.02 0 l0 2 l-3.02 0 l0 4.1 l3.8 0 l0 2 l-6 0 l0 -14 l6 0 l0 2 l-3.8 0 z M215.73500000000004 8 l0 3.9 l3.02 0 l0 2 l-3.02 0 l0 4.1 l3.8 0 l0 2 l-6 0 l0 -14 l6 0 l0 2 l-3.8 0 z M227.92800000000005 20 l0 -14 l3.48 0 c2.2 0 3.28 1.22 3.28 3.46 l0 7.08 c0 2.24 -1.08 3.46 -3.28 3.46 l-3.48 0 z M231.36800000000005 8 l-1.24 0 l0 10 l1.24 0 c0.7 0 1.12 -0.36 1.12 -1.36 l0 -7.28 c0 -1 -0.42 -1.36 -1.12 -1.36 z M253.25400000000008 20 l0 -14 l2.2 0 l0 14 l-2.2 0 z M263.4470000000001 8 l0 -2 l6.8 0 l0 2 l-2.3 0 l0 12 l-2.2 0 l0 -12 l-2.3 0 z M277.04000000000013 17.88 l2.12 0 l0 2.12 l-2.12 0 l0 -2.12 z"/></g>
			</g>
		</svg>
	